<?xml version="1.0" encoding="utf-8"?>
<svg version="1.0" xmlns="http://www.w3.org/2000/svg" width="300.000000pt" height="300.000000pt" viewBox="0 0 300.000000 300.000000" preserveAspectRatio="xMidYMid meet" xmlns:bx="https://boxy-svg.com"><defs><bx:export><bx:file format="svg" units="pt"/><bx:file format="png"/></bx:export></defs><g transform="translate(0.000000,300.000000) scale(0.100000,-0.100000)" fill="#000000" stroke="none"><path d="M1485 2675 c0 -131 2 -155 15 -155 13 0 15 24 15 155 0 131 -2 155 -15 155 -13 0 -15 -24 -15 -155z" style="fill: rgb(215, 171, 71);"/><path d="M1196 2702 c-3 -5 20 -65 50 -133 31 -68 62 -139 70 -158 10 -23 18 -31 25 -24 6 6 -13 61 -57 166 -64 148 -76 169 -88 149z" style="fill: rgb(215, 171, 71);"/><path d="M1741 2608 c-24 -57 -55 -125 -68 -152 -27 -57 -28 -66 -10 -66 12 0 142 279 142 304 0 5 -5 11 -10 13 -6 2 -30 -43 -54 -99z" style="fill: rgb(215, 171, 71);"/><path d="M960 2528 c0 -16 253 -258 269 -258 6 0 11 4 11 9 0 10 -254 254 -270 259 -6 2 -10 -3 -10 -10z" style="fill: rgb(215, 171, 71);"/><path d="M1893 2411 c-73 -70 -133 -130 -133 -134 0 -23 41 7 153 114 111 105 147 150 120 149 -5 -1 -68 -58 -140 -129z" style="fill: rgb(215, 171, 71);"/><path d="M 1445 2343 C 1268 2099 1226 2019 1226 1920 C 1226 1871 1231 1844 1249 1810 C 1271 1767 1363 1670 1381 1670 C 1385 1670 1380 1689 1370 1713 C 1345 1767 1345 1827 1369 1882 C 1393 1938 1488 2076 1498 2070 C 1510 2062 1606 1917 1630 1871 C 1657 1816 1606 1661 1656 1701 C 1780 1798 1807 1917 1738 2061 C 1707 2127 1520 2401 1502 2408 C 1498 2409 1473 2380 1445 2343 Z" style="paint-order: stroke; fill: rgb(215, 171, 71);"/><path d="M794 2269 c-3 -6 -3 -13 0 -16 8 -9 316 -143 327 -143 26 0 4 28 -33 42 -24 9 -98 41 -165 71 -72 32 -125 51 -129 46z" style="fill: rgb(215, 171, 71);"/><path d="M2156 2258 c-22 -11 -91 -42 -155 -70 -119 -51 -140 -63 -128 -75 7 -7 313 121 332 138 6 6 6 12 0 18 -6 6 -25 2 -49 -11z" style="fill: rgb(215, 171, 71);"/><path d="M687 1984 c-20 -21 11 -24 201 -22 131 2 206 7 205 13 -3 11 -395 20 -406 9z" style="fill: rgb(215, 171, 71);"/><path d="M1907 1983 c-20 -19 11 -23 203 -23 180 0 210 2 210 15 0 13 -29 15 -203 15 -112 0 -207 -3 -210 -7z" style="fill: rgb(215, 171, 71);"/><path d="M 1473 1873 C 1419 1799 1406 1735 1436 1692 C 1448 1674 1558 1673 1568 1695 C 1589 1740 1582 1783 1544 1843 C 1525 1874 1505 1900 1501 1900 C 1497 1900 1485 1888 1473 1873 Z" style="fill: rgb(85, 19, 38);"/><path d="M 265 1657 C 244 1639 239 1627 242 1600 L 245 1565 L 265 1604 C 276 1626 346 1619 367 1584 C 378 1567 379 1568 379 1598 C 380 1636 343 1680 311 1680 C 300 1680 279 1670 265 1657 Z" style="fill: rgb(215, 171, 71);"/><path d="M 1424 1622 L 1283 1619 L 1272 1582 C 1266 1561 1247 1530 1231 1514 C 1203 1485 1107 1440 1075 1440 C 1067 1440 1058 1436 1055 1430 C 1051 1423 1202 1420 1501 1420 C 1761 1420 1950 1424 1945 1429 C 1939 1434 1912 1445 1883 1454 C 1804 1480 1768 1509 1738 1570 L 1712 1625 L 1638 1625 C 1598 1625 1502 1624 1424 1622 Z" style="fill: rgb(85, 19, 38);"/><path d="M 2550 1566 C 2461 1529 2411 1501 2309 1433 L 2213 1369 L 1560 1370 L 907 1370 L 761 1434 C 565 1519 479 1540 324 1540 C 216 1540 200 1538 176 1519 C 149 1498 143 1467 160 1440 C 166 1430 202 1422 273 1414 C 464 1393 555 1341 769 1135 C 983 928 1072 867 1230 819 C 1297 799 1326 796 1505 796 C 1686 796 1712 798 1780 819 C 1821 831 1864 847 1875 854 C 1888 863 1951 869 2055 873 C 2183 877 2235 883 2314 904 C 2507 954 2675 1059 2765 1184 C 2883 1350 2876 1506 2748 1571 C 2697 1597 2619 1595 2550 1566 Z M 2737 1475 C 2771 1441 2772 1437 2767 1385 C 2754 1258 2637 1126 2463 1041 C 2293 958 2070 932 2070 996 C 2070 999.081 2089.004 1072.441 2129.298 1140.542 C 2167.462 1205.043 2226.758 1264.272 2236 1274 C 2284 1325 2420 1417 2520 1467 C 2634 1524 2686 1526 2737 1475 Z" style="fill: rgb(85, 19, 38);"/><path d="M 1304 741 C 1295.629 739.928 1305.376 722.505 1300 716 C 1264.86 673.478 1225.275 634.693 1185 597 C 1147.17 561.595 1099.252 536.735 1066 497 C 1044.931 471.823 1036.458 438.119 1026 407 C 1022.6 396.884 1014.357 375.781 1025 375 C 1035.622 374.221 1968.724 369.456 1980 370 C 1988.324 370.401 1984.737 388.144 1980 395 C 1933.153 462.805 1882.704 528.359 1828 590 C 1790.431 632.333 1741.211 663.351 1704 706 C 1696.65 714.425 1709.005 737.029 1698 739 C 1669.033 744.188 1369.797 749.427 1304 741 Z" style="fill: rgb(85, 19, 38);"/></g></svg>